<svg id="Announcements" xmlns="http://www.w3.org/2000/svg" width="24" height="24" viewBox="0 0 24 24">
  <path id="Path_14980" data-name="Path 14980" d="M0,0H24V24H0Z" fill="none"/>
  <path id="Path_14981" data-name="Path 14981" d="M10,5a2,2,0,0,1,4,0,7,7,0,0,1,4,6v3a4,4,0,0,0,2,3H4a4,4,0,0,0,2-3V11a7,7,0,0,1,4-6" fill="none" stroke="#fff" stroke-linecap="round" stroke-linejoin="round" stroke-width="1.5"/>
  <path id="Path_14982" data-name="Path 14982" d="M9,17v1a3,3,0,0,0,6,0V17" fill="none" stroke="#fff" stroke-linecap="round" stroke-linejoin="round" stroke-width="1.5"/>
  <path id="Path_14983" data-name="Path 14983" d="M21,6.727A11.05,11.05,0,0,0,18.206,3" fill="none" stroke="#fff" stroke-linecap="round" stroke-linejoin="round" stroke-width="1.5"/>
  <path id="Path_14984" data-name="Path 14984" d="M3,6.727A11.05,11.05,0,0,1,5.792,3" fill="none" stroke="#fff" stroke-linecap="round" stroke-linejoin="round" stroke-width="1.5"/>
</svg>
