<svg id="Attendance" xmlns="http://www.w3.org/2000/svg" width="24" height="24" viewBox="0 0 24 24">
  <path id="Path_14990" data-name="Path 14990" d="M0,0H24V24H0Z" fill="none"/>
  <path id="Path_14991" data-name="Path 14991" d="M18.9,7A8,8,0,0,1,20,12v1a6,6,0,0,0,.8,3" fill="none" stroke="#fff" stroke-linecap="round" stroke-linejoin="round" stroke-width="1.5"/>
  <path id="Path_14992" data-name="Path 14992" d="M8,11a4,4,0,1,1,8,0v1a10,10,0,0,0,2,6" fill="none" stroke="#fff" stroke-linecap="round" stroke-linejoin="round" stroke-width="1.5"/>
  <path id="Path_14993" data-name="Path 14993" d="M12,11v2a14,14,0,0,0,2.5,8" fill="none" stroke="#fff" stroke-linecap="round" stroke-linejoin="round" stroke-width="1.5"/>
  <path id="Path_14994" data-name="Path 14994" d="M8,15a18,18,0,0,0,1.8,6" fill="none" stroke="#fff" stroke-linecap="round" stroke-linejoin="round" stroke-width="1.5"/>
  <path id="Path_14995" data-name="Path 14995" d="M4.9,19A22,22,0,0,1,4,12V11A8,8,0,0,1,16,4.05" fill="none" stroke="#fff" stroke-linecap="round" stroke-linejoin="round" stroke-width="1.5"/>
</svg>
