<svg id="Batches" xmlns="http://www.w3.org/2000/svg" width="24" height="24" viewBox="0 0 24 24">
  <path id="Path_14968" data-name="Path 14968" d="M0,0H24V24H0Z" fill="none"/>
  <path id="Path_14969" data-name="Path 14969" d="M9,4h3l2,2h5a2,2,0,0,1,2,2v7a2,2,0,0,1-2,2H9a2,2,0,0,1-2-2V6A2,2,0,0,1,9,4" fill="none" stroke="#fff" stroke-linecap="round" stroke-linejoin="round" stroke-width="1.5"/>
  <path id="Path_14970" data-name="Path 14970" d="M17,17v2a2,2,0,0,1-2,2H5a2,2,0,0,1-2-2V10A2,2,0,0,1,5,8H7" fill="none" stroke="#fff" stroke-linecap="round" stroke-linejoin="round" stroke-width="1.5"/>
</svg>
