<svg id="Introductions" xmlns="http://www.w3.org/2000/svg" width="24" height="24" viewBox="0 0 24 24">
  <path id="Path_14986" data-name="Path 14986" d="M0,0H24V24H0Z" fill="none"/>
  <path id="Path_14987" data-name="Path 14987" d="M8,13.5v-8a1.5,1.5,0,1,1,3,0V12m0-6.5v-2a1.5,1.5,0,0,1,3,0V12m0-6.5a1.5,1.5,0,1,1,3,0V12m0-4.5a1.5,1.5,0,1,1,3,0V16a6,6,0,0,1-6,6H12a7.073,7.073,0,0,1-5-3L4.3,13.75a1.7,1.7,0,1,1,2.75-2l.9,1.75" fill="none" stroke="#fff" stroke-linecap="round" stroke-linejoin="round" stroke-width="1.5"/>
</svg>
