<svg id="Miscellaneous" xmlns="http://www.w3.org/2000/svg" width="24" height="24" viewBox="0 0 24 24">
  <path id="Path_14964" data-name="Path 14964" d="M0,0H24V24H0Z" fill="none"/>
  <path id="Path_14965" data-name="Path 14965" d="M19,3H15a2,2,0,0,0-2,2V17a4,4,0,0,0,8,0V5a2,2,0,0,0-2-2" fill="none" stroke="#fff" stroke-linecap="round" stroke-linejoin="round" stroke-width="1.5"/>
  <path id="Path_14966" data-name="Path 14966" d="M13,7.35l-2-2a2,2,0,0,0-2.828,0L5.344,8.178a2,2,0,0,0,0,2.828l9,9" fill="none" stroke="#fff" stroke-linecap="round" stroke-linejoin="round" stroke-width="1.5"/>
  <path id="Path_14967" data-name="Path 14967" d="M7.3,13H5a2,2,0,0,0-2,2v4a2,2,0,0,0,2,2H17" fill="none" stroke="#fff" stroke-linecap="round" stroke-linejoin="round" stroke-width="1.5"/>
  <line id="Line_303" data-name="Line 303" y2="0.01" transform="translate(17 17)" fill="none" stroke="#fff" stroke-linecap="round" stroke-linejoin="round" stroke-width="1.5"/>
</svg>
